<svg width="269" height="60" viewBox="0 0 269 60" fill="none" xmlns="http://www.w3.org/2000/svg">
<g clip-path="url(#clip0)">
<path d="M51.7345 32.5114C51.7345 30.0457 51.4659 28.3105 50.8394 27.306C50.2129 26.3014 49.1388 25.7534 47.6172 25.7534C47.1697 25.7534 46.6326 25.7534 46.1851 25.8448C45.6481 25.9361 45.2005 25.9361 44.753 26.0274V46.9407H37.2345V20.7306C37.861 20.548 38.5771 20.3653 39.4721 20.1827C40.3672 20 41.2623 19.8174 42.1573 19.6347C43.1419 19.4521 44.1265 19.3607 45.111 19.2694C46.0956 19.1781 47.0802 19.1781 48.0647 19.1781C49.9443 19.1781 51.5555 19.4521 52.719 19.9087C53.8826 20.3653 54.8672 21.0046 55.6727 21.6439C56.7468 20.8219 57.9999 20.274 59.3425 19.8174C60.7746 19.3607 62.0277 19.1781 63.1912 19.1781C65.3394 19.1781 67.04 19.4521 68.3826 20.0913C69.7252 20.7306 70.7992 21.5525 71.6048 22.6484C72.4104 23.7443 72.9474 25.0229 73.3054 26.5754C73.5739 28.1279 73.7529 29.7717 73.7529 31.5982V46.8493H66.2344V32.5114C66.2344 30.0457 65.9659 28.3105 65.3394 27.306C64.7128 26.3014 63.6388 25.7534 62.1172 25.7534C61.6696 25.7534 61.1326 25.8448 60.4165 26.0274C59.7005 26.2101 59.074 26.484 58.6264 26.758C58.8949 27.5799 58.9845 28.4018 59.074 29.2238C59.1635 30.137 59.1635 31.0502 59.1635 32.0548V46.8493H51.645V32.5114H51.7345Z" fill="#065BAA"/>
<path d="M87.6264 19.0868C89.864 19.0868 91.6541 19.3608 93.1757 19.8174C94.6973 20.3653 95.8609 21.0959 96.756 22.0092C97.651 23.0137 98.2776 24.1096 98.6356 25.4795C98.9936 26.8494 99.1726 28.4019 99.1726 30.0457V46.0274C98.0986 46.3014 96.577 46.5754 94.6973 46.8494C92.8177 47.2147 90.4905 47.306 87.7159 47.306C86.0152 47.306 84.4041 47.1233 83.0616 46.8494C81.6295 46.5754 80.4659 46.0274 79.4813 45.2969C78.4967 44.5663 77.6912 43.653 77.1542 42.5571C76.6171 41.4612 76.3486 40 76.3486 38.3562C76.3486 36.8037 76.6171 35.4338 77.2437 34.3379C77.8702 33.2421 78.6758 32.3288 79.7498 31.6895C80.8239 31.0503 81.9875 30.5937 83.3301 30.3197C84.6727 30.0457 86.1048 29.8631 87.5369 29.8631C88.5214 29.8631 89.4165 29.8631 90.1325 29.9544C90.8486 30.0457 91.4751 30.137 92.0122 30.3197V29.5891C92.0122 28.3106 91.6541 27.2147 90.8486 26.4841C90.043 25.6622 88.7004 25.2969 86.8208 25.2969C85.5677 25.2969 84.3146 25.3882 83.0616 25.5708C81.8085 25.7535 80.7344 26.0274 79.8393 26.3927L78.8548 20.1827C79.3023 20.0001 79.8393 19.9087 80.4659 19.7261C81.0924 19.5434 81.8085 19.4521 82.614 19.2695C83.4196 19.1781 84.2251 19.0868 85.0307 18.9955C85.9257 19.0868 86.8208 19.0868 87.6264 19.0868ZM88.2529 41.4612C88.9689 41.4612 89.685 41.4612 90.401 41.3699C91.1171 41.3699 91.6541 41.2786 92.0122 41.1873V35.3425C91.7436 35.2512 91.2961 35.1599 90.6696 35.1599C90.043 35.0685 89.506 35.0685 88.9689 35.0685C88.2529 35.0685 87.6264 35.0685 86.9998 35.1599C86.3733 35.2512 85.8362 35.4338 85.3887 35.6165C84.9412 35.8905 84.5831 36.1644 84.3146 36.6211C84.0461 37.0777 83.8671 37.5343 83.8671 38.1736C83.8671 39.3608 84.2251 40.1827 85.0307 40.6393C85.8362 41.2786 86.9103 41.4612 88.2529 41.4612Z" fill="#065BAA"/>
<path d="M163.975 19.0868C166.213 19.0868 168.003 19.3608 169.524 19.8174C171.046 20.3653 172.21 21.0959 173.105 22.0092C174 23.0137 174.626 24.1096 174.984 25.4795C175.342 26.8494 175.521 28.4019 175.521 30.0457V46.0274C174.447 46.3014 172.926 46.5754 171.046 46.8494C169.166 47.2147 166.839 47.306 164.064 47.306C162.364 47.306 160.753 47.1233 159.41 46.8494C157.978 46.5754 156.815 46.0274 155.83 45.2969C154.845 44.5663 154.04 43.653 153.503 42.5571C152.966 41.4612 152.697 40 152.697 38.3562C152.697 36.8037 152.966 35.4338 153.592 34.3379C154.219 33.2421 155.024 32.3288 156.098 31.6895C157.173 31.0503 158.336 30.5937 159.679 30.3197C161.021 30.0457 162.453 29.8631 163.885 29.8631C164.87 29.8631 165.765 29.8631 166.481 29.9544C167.197 30.0457 167.824 30.137 168.361 30.3197V29.5891C168.361 28.3106 168.003 27.2147 167.197 26.4841C166.392 25.6622 165.049 25.2969 163.169 25.2969C161.916 25.2969 160.663 25.3882 159.41 25.5708C158.157 25.7535 157.083 26.0274 156.188 26.3927L155.203 20.1827C155.651 20.0001 156.188 19.9087 156.815 19.7261C157.441 19.5434 158.157 19.4521 158.963 19.2695C159.768 19.1781 160.574 19.0868 161.379 18.9955C162.185 19.0868 163.08 19.0868 163.975 19.0868ZM164.512 41.4612C165.228 41.4612 165.944 41.4612 166.66 41.3699C167.376 41.3699 167.913 41.2786 168.271 41.1873V35.3425C168.003 35.2512 167.555 35.1599 166.929 35.1599C166.302 35.0685 165.765 35.0685 165.228 35.0685C164.512 35.0685 163.885 35.0685 163.259 35.1599C162.632 35.2512 162.095 35.4338 161.648 35.6165C161.2 35.8905 160.842 36.1644 160.574 36.6211C160.305 37.0777 160.126 37.5343 160.126 38.1736C160.126 39.3608 160.484 40.1827 161.29 40.6393C162.095 41.2786 163.169 41.4612 164.512 41.4612Z" fill="#50B848"/>
<path d="M194.318 32.5114C194.318 30.0457 194.049 28.3105 193.422 27.306C192.796 26.3014 191.722 25.7534 190.2 25.7534C189.753 25.7534 189.216 25.7534 188.768 25.8448C188.231 25.9361 187.784 25.9361 187.336 26.0274V46.9407H179.818V20.7306C180.444 20.548 181.16 20.3653 182.055 20.1827C182.95 20 183.845 19.8174 184.74 19.6347C185.725 19.4521 186.709 19.3607 187.694 19.2694C188.679 19.1781 189.663 19.1781 190.648 19.1781C192.527 19.1781 194.138 19.4521 195.302 19.9087C196.466 20.3653 197.45 21.0046 198.256 21.6439C199.33 20.8219 200.583 20.274 201.926 19.8174C203.358 19.3607 204.611 19.1781 205.774 19.1781C207.922 19.1781 209.623 19.4521 210.966 20.0913C212.308 20.7306 213.382 21.5525 214.188 22.6484C214.993 23.7443 215.53 25.0229 215.888 26.5754C216.157 28.1279 216.336 29.7717 216.336 31.5982V46.8493H208.817V32.5114C208.817 30.0457 208.549 28.3105 207.922 27.306C207.296 26.3014 206.222 25.7534 204.7 25.7534C204.253 25.7534 203.716 25.8448 203 26.0274C202.284 26.2101 201.657 26.484 201.209 26.758C201.478 27.5799 201.567 28.4018 201.657 29.2238C201.747 30.137 201.746 31.0502 201.746 32.0548V46.8493H194.228V32.5114H194.318Z" fill="#50B848"/>
<path d="M230.209 19.0868C232.447 19.0868 234.237 19.3608 235.759 19.8174C237.28 20.3653 238.444 21.0959 239.339 22.0092C240.234 23.0137 240.861 24.1096 241.219 25.4795C241.577 26.8494 241.756 28.4019 241.756 30.0457V46.0274C240.682 46.3014 239.16 46.5754 237.28 46.8494C235.401 47.2147 233.074 47.306 230.299 47.306C228.598 47.306 226.987 47.1233 225.645 46.8494C224.212 46.5754 223.049 46.0274 222.064 45.2969C221.08 44.5663 220.274 43.653 219.737 42.5571C219.2 41.4612 218.932 40 218.932 38.3562C218.932 36.8037 219.2 35.4338 219.827 34.3379C220.453 33.2421 221.259 32.3288 222.333 31.6895C223.407 31.0503 224.571 30.5937 225.913 30.3197C227.256 30.0457 228.688 29.8631 230.12 29.8631C231.104 29.8631 232 29.8631 232.716 29.9544C233.432 30.0457 234.058 30.137 234.595 30.3197V29.5891C234.595 28.3106 234.237 27.2147 233.432 26.4841C232.626 25.6622 231.283 25.2969 229.404 25.2969C228.151 25.2969 226.898 25.3882 225.645 25.5708C224.392 25.7535 223.317 26.0274 222.422 26.3927L221.438 20.1827C221.885 20.0001 222.422 19.9087 223.049 19.7261C223.675 19.5434 224.392 19.4521 225.197 19.2695C226.003 19.1781 226.808 19.0868 227.614 18.9955C228.509 19.0868 229.404 19.0868 230.209 19.0868ZM230.836 41.4612C231.552 41.4612 232.268 41.4612 232.984 41.3699C233.7 41.3699 234.237 41.2786 234.595 41.1873V35.3425C234.327 35.2512 233.879 35.1599 233.253 35.1599C232.626 35.0685 232.089 35.0685 231.552 35.0685C230.836 35.0685 230.209 35.0685 229.583 35.1599C228.956 35.2512 228.419 35.4338 227.972 35.6165C227.524 35.8905 227.166 36.1644 226.898 36.6211C226.629 37.0777 226.45 37.5343 226.45 38.1736C226.45 39.3608 226.808 40.1827 227.614 40.6393C228.419 41.2786 229.493 41.4612 230.836 41.4612Z" fill="#50B848"/>
<path d="M246.052 20.7306C247.305 20.3653 249.006 20 250.975 19.6347C253.033 19.2694 255.092 19.1781 257.33 19.1781C259.567 19.1781 261.447 19.4521 262.969 20.0913C264.49 20.7306 265.654 21.5525 266.549 22.6484C267.444 23.7443 268.07 25.0229 268.429 26.5754C268.787 28.1279 268.966 29.7717 268.966 31.5982V46.8493H261.447V32.5114C261.447 30.0457 261.089 28.3105 260.462 27.306C259.836 26.3014 258.672 25.7534 256.882 25.7534C256.345 25.7534 255.808 25.7534 255.182 25.8448C254.555 25.9361 254.018 25.9361 253.571 26.0274V46.9407H246.052V20.7306Z" fill="#50B848"/>
<path d="M145.716 19.7261C145.358 21.096 145 22.5571 144.552 24.1097C144.105 25.6622 143.657 27.2147 143.21 28.8585C142.762 30.411 142.314 31.9635 141.777 33.516C141.33 35.0686 140.882 36.4384 140.435 37.6256C139.987 36.3471 139.45 34.9772 138.913 33.516C138.376 31.9635 137.839 30.411 137.392 28.8585C136.855 27.306 136.407 25.6622 135.96 24.1097C135.512 22.5571 135.065 21.096 134.796 19.7261H126.83C128.352 25.0229 129.963 29.8631 131.663 34.064C133.364 38.3562 135.065 42.1918 136.765 45.5708C136.497 46.2101 133.811 52.1462 131.753 52.3288C129.426 52.5115 76.3486 52.3288 76.3486 52.3288L74.5585 58.2649C74.5585 58.2649 127.994 58.2649 132.648 58.2649C137.302 58.2649 140.524 53.516 142.583 48.8585C142.583 48.8585 143.031 48.0366 143.21 47.58C145.179 43.2877 146.969 38.9042 148.58 34.338C150.191 29.7718 151.802 24.9316 153.324 19.6348H145.716V19.7261Z" fill="#50B848"/>
<path d="M103.469 46.8493H110.987V25.9361L103.469 20.7306V46.8493Z" fill="#065BAA"/>
<path d="M125.845 26.4841C125.487 24.9315 124.861 23.653 123.966 22.5571C123.071 21.4612 121.907 20.6393 120.386 20C118.864 19.3608 116.984 19.0868 114.747 19.0868C112.509 19.0868 110.45 19.2694 108.392 19.5434C106.333 19.9087 104.722 20.1827 103.469 20.6393L110.987 25.8448C111.435 25.7535 111.972 25.7535 112.599 25.6621C113.225 25.5708 113.762 25.5708 114.299 25.5708C116.089 25.5708 117.253 26.1188 117.879 27.1233C118.506 28.1279 118.864 29.8631 118.864 32.3288V46.6667H126.382V31.5069C126.382 29.6804 126.203 28.0366 125.845 26.4841Z" fill="#50B848"/>
<path d="M26.9413 47.1233C26.5833 45.8448 26.1357 44.6575 25.6882 43.2877C25.2407 42.0091 24.7932 40.6393 24.3456 39.3607H10.7407C10.2932 40.6393 9.84566 42.0091 9.39813 43.2877C8.9506 44.5662 8.50307 45.8448 8.14505 47.1233H0C1.34259 43.2877 2.59567 39.726 3.75925 36.4384C4.92283 33.1507 6.08641 30.137 7.24999 27.2146C8.41356 24.2922 9.48763 21.6438 10.5617 18.9954C11.6358 16.4384 12.7994 13.8813 13.9629 11.4155H21.3919C22.5555 13.8813 23.6296 16.4384 24.7932 18.9954C25.8672 21.5525 27.0308 24.2922 28.1944 27.2146C29.358 30.137 30.5215 33.1507 31.6851 36.4384C32.8487 39.726 34.1018 43.2877 35.4444 47.1233H26.9413ZM17.5432 19.5434C17.3642 20.0913 17.0956 20.7306 16.7376 21.6438C16.3796 22.5571 16.0216 23.5617 15.574 24.7489C15.1265 25.9361 14.679 27.2146 14.1419 28.5845C13.6049 29.9543 13.0679 31.5069 12.5308 32.968H22.5555C22.0185 31.4155 21.4814 29.9543 21.0339 28.4932C20.4969 27.1233 20.0493 25.7534 19.6018 24.6575C19.1543 23.4703 18.7963 22.4658 18.4382 21.5525C17.9907 20.7306 17.7222 20.0913 17.5432 19.5434Z" fill="#065BAA"/>
<path d="M147.327 57.169C147.506 57.169 147.685 57.169 147.774 57.0777C147.864 57.0777 148.043 56.9864 148.043 56.9864C148.132 56.8951 148.132 56.8951 148.222 56.8037C148.222 56.7124 148.222 56.6211 148.222 56.5298C148.222 56.3471 148.132 56.1645 147.953 55.9818C147.774 55.8905 147.416 55.7078 146.969 55.5252C146.79 55.4339 146.521 55.3425 146.342 55.2512C146.163 55.1599 145.984 55.0686 145.805 54.8859C145.626 54.7033 145.537 54.612 145.447 54.338C145.358 54.064 145.268 53.8814 145.268 53.6074C145.268 53.3334 145.358 53.0594 145.447 52.7855C145.537 52.5115 145.716 52.3288 145.895 52.1462C146.074 51.9635 146.342 51.8722 146.611 51.7809C146.879 51.6896 147.237 51.6896 147.595 51.6896C148.043 51.6896 148.401 51.6896 148.669 51.7809C148.938 51.8722 149.206 51.9635 149.386 52.0549L149.027 53.1508C148.848 53.0594 148.669 52.9681 148.49 52.8768C148.311 52.7855 148.043 52.7855 147.774 52.7855C147.416 52.7855 147.237 52.8768 147.058 52.9681C146.879 53.0594 146.879 53.2421 146.879 53.4247C146.879 53.5161 146.879 53.6074 146.969 53.6987C147.058 53.79 147.058 53.8814 147.237 53.8814C147.327 53.9727 147.416 53.9727 147.595 54.064C147.685 54.1553 147.864 54.1553 148.043 54.2467C148.401 54.338 148.669 54.5206 148.848 54.612C149.117 54.7033 149.296 54.8859 149.475 55.0686C149.654 55.2512 149.744 55.4339 149.833 55.6165C149.923 55.7992 149.923 56.0731 149.923 56.3471C149.923 56.8951 149.744 57.3517 149.296 57.717C148.848 58.0823 148.311 58.1736 147.506 58.1736C147.237 58.1736 146.969 58.1736 146.79 58.0823C146.611 58.0823 146.342 57.991 146.163 57.991C145.984 57.8996 145.805 57.8996 145.716 57.8083C145.626 57.717 145.447 57.717 145.447 57.6257L145.805 56.5298C145.984 56.6211 146.253 56.7124 146.521 56.8037C146.611 57.169 146.879 57.169 147.327 57.169Z" fill="#065BAA"/>
<path d="M154.577 55.8904C154.577 56.2557 154.577 56.621 154.487 56.895C154.398 57.169 154.308 57.4429 154.129 57.7169C153.95 57.8996 153.771 58.0822 153.503 58.2649C153.234 58.3562 152.966 58.4475 152.608 58.4475C152.429 58.4475 152.25 58.4475 152.071 58.3562C151.892 58.3562 151.713 58.2649 151.623 58.1735V60H150.281V53.6987C150.37 53.6987 150.549 53.6073 150.728 53.6073C150.907 53.6073 151.086 53.516 151.176 53.516C151.355 53.516 151.534 53.516 151.713 53.4247C151.892 53.4247 152.071 53.4247 152.25 53.4247C152.608 53.4247 152.966 53.516 153.324 53.6073C153.592 53.6987 153.861 53.8813 154.129 54.064C154.308 54.2466 154.487 54.5206 154.577 54.8859C154.577 55.1598 154.577 55.5251 154.577 55.8904ZM153.234 55.9818C153.234 55.5251 153.145 55.2512 152.966 54.9772C152.787 54.7032 152.518 54.6119 152.16 54.6119C152.071 54.6119 151.892 54.6119 151.802 54.6119C151.713 54.6119 151.623 54.6119 151.534 54.6119V57.0776C151.623 57.169 151.713 57.169 151.892 57.169C151.981 57.169 152.16 57.2603 152.339 57.2603C152.966 57.2603 153.234 56.8037 153.234 55.9818Z" fill="#065BAA"/>
<path d="M154.935 55.9818C154.935 55.5251 155.024 55.1598 155.114 54.8859C155.203 54.6119 155.382 54.3379 155.651 54.064C155.83 53.8813 156.098 53.6987 156.367 53.6073C156.635 53.516 156.904 53.4247 157.173 53.4247C157.799 53.4247 158.336 53.6073 158.784 54.064C159.142 54.5206 159.321 55.0685 159.321 55.8904C159.321 55.9818 159.321 56.0731 159.321 56.1644C159.321 56.2557 159.321 56.3471 159.321 56.4384H156.277C156.277 56.7124 156.456 56.895 156.635 57.0777C156.814 57.2603 157.173 57.3516 157.531 57.3516C157.799 57.3516 157.978 57.3516 158.247 57.2603C158.515 57.2603 158.694 57.169 158.784 57.0777L158.963 58.1735C158.873 58.1735 158.784 58.2649 158.694 58.2649C158.605 58.2649 158.426 58.3562 158.336 58.3562C158.157 58.3562 158.068 58.4475 157.889 58.4475C157.71 58.4475 157.531 58.4475 157.352 58.4475C156.904 58.4475 156.546 58.3562 156.277 58.2649C156.009 58.1735 155.74 57.9909 155.472 57.7169C155.293 57.5343 155.114 57.2603 155.024 56.895C155.024 56.621 154.935 56.2557 154.935 55.9818ZM158.068 55.4338C158.068 55.3425 158.068 55.2512 157.978 55.0685C157.978 54.9772 157.889 54.8859 157.799 54.7945C157.71 54.7032 157.62 54.6119 157.531 54.6119C157.441 54.5206 157.262 54.5206 157.173 54.5206C156.994 54.5206 156.904 54.5206 156.814 54.6119C156.725 54.7032 156.635 54.7032 156.546 54.7945C156.456 54.8859 156.456 54.9772 156.367 55.0685C156.367 55.1598 156.277 55.2512 156.277 55.4338H158.068Z" fill="#065BAA"/>
<path d="M161.29 57.3516C161.558 57.3516 161.737 57.3516 161.827 57.2603C161.916 57.169 162.006 57.0777 162.006 56.9863C162.006 56.895 161.916 56.8037 161.827 56.7124C161.737 56.621 161.469 56.5297 161.2 56.4384C161.021 56.3471 160.842 56.2557 160.663 56.1644C160.484 56.0731 160.395 55.9818 160.216 55.8904C160.126 55.7991 160.037 55.6165 159.947 55.4338C159.858 55.2512 159.858 55.0685 159.858 54.8859C159.858 54.4292 160.037 54.064 160.305 53.79C160.574 53.516 161.111 53.4247 161.648 53.4247C161.916 53.4247 162.185 53.4247 162.453 53.516C162.722 53.6073 162.901 53.6073 163.08 53.6987L162.811 54.7945C162.632 54.7032 162.453 54.7032 162.274 54.6119C162.095 54.6119 161.916 54.5206 161.648 54.5206C161.2 54.5206 161.021 54.6119 161.021 54.8859C161.021 54.9772 161.021 54.9772 161.021 55.0685L161.111 55.1598C161.2 55.1598 161.2 55.2512 161.29 55.2512C161.379 55.3425 161.469 55.3425 161.648 55.4338C161.916 55.5251 162.185 55.6165 162.364 55.7991C162.543 55.8904 162.722 55.9818 162.811 56.1644C162.901 56.3471 162.99 56.4384 163.08 56.621C163.169 56.8037 163.169 56.9863 163.169 57.169C163.169 57.6256 162.99 57.9909 162.632 58.2649C162.274 58.5388 161.827 58.6302 161.2 58.6302C160.753 58.6302 160.484 58.6302 160.126 58.5388C159.858 58.4475 159.679 58.4475 159.589 58.3562L159.768 57.2603C160.037 57.3516 160.216 57.443 160.484 57.443C160.842 57.2603 161.021 57.3516 161.29 57.3516Z" fill="#065BAA"/>
<path d="M165.228 52.1461C165.228 52.4201 165.139 52.6027 164.96 52.6941C164.781 52.8767 164.602 52.8767 164.422 52.8767C164.243 52.8767 164.064 52.7854 163.885 52.6941C163.706 52.5114 163.617 52.3288 163.617 52.1461C163.617 51.8721 163.706 51.6895 163.885 51.5982C164.064 51.4155 164.243 51.4155 164.422 51.4155C164.602 51.4155 164.781 51.5069 164.96 51.5982C165.139 51.6895 165.228 51.8721 165.228 52.1461ZM165.139 58.2648H163.796V53.516H165.139V58.2648Z" fill="#065BAA"/>
<path d="M167.645 53.4247C168.003 53.4247 168.361 53.4247 168.629 53.516C168.898 53.6073 169.077 53.6987 169.256 53.8813C169.435 54.064 169.524 54.2466 169.614 54.5206C169.703 54.7945 169.703 55.0685 169.703 55.3425V58.1735C169.524 58.1735 169.256 58.2649 168.898 58.3562C168.54 58.4475 168.182 58.4475 167.645 58.4475C167.376 58.4475 167.108 58.4475 166.839 58.3562C166.571 58.2649 166.392 58.1735 166.213 58.0822C166.034 57.9909 165.855 57.8082 165.765 57.6256C165.676 57.4429 165.586 57.169 165.586 56.895C165.586 56.621 165.676 56.3471 165.765 56.1644C165.855 55.9818 166.034 55.7991 166.213 55.7078C166.392 55.6165 166.571 55.5251 166.839 55.4338C167.108 55.3425 167.287 55.3425 167.555 55.3425C167.734 55.3425 167.913 55.3425 168.003 55.3425C168.092 55.3425 168.271 55.3425 168.361 55.4338V55.3425C168.361 55.0685 168.271 54.8859 168.182 54.7945C168.003 54.6119 167.824 54.6119 167.466 54.6119C167.197 54.6119 167.018 54.6119 166.839 54.7032C166.66 54.7032 166.392 54.7945 166.302 54.8859L166.123 53.79C166.213 53.79 166.302 53.6987 166.392 53.6987C166.481 53.6987 166.66 53.6073 166.75 53.6073C166.929 53.6073 167.018 53.6073 167.197 53.516C167.287 53.4247 167.466 53.4247 167.645 53.4247ZM167.734 57.3516C167.824 57.3516 168.003 57.3516 168.092 57.3516C168.182 57.3516 168.271 57.3516 168.361 57.3516V56.3471C168.271 56.3471 168.271 56.3471 168.092 56.3471C168.003 56.3471 167.913 56.3471 167.824 56.3471C167.734 56.3471 167.555 56.3471 167.466 56.3471C167.376 56.3471 167.287 56.3471 167.197 56.4384C167.108 56.4384 167.018 56.5297 167.018 56.621C166.929 56.7124 166.929 56.8037 166.929 56.895C166.929 57.0776 167.018 57.2603 167.108 57.3516C167.287 57.2603 167.466 57.3516 167.734 57.3516Z" fill="#065BAA"/>
<path d="M172.299 58.3562C171.941 58.3562 171.583 58.2649 171.404 58.2649C171.135 58.1736 170.956 58.0822 170.867 57.8996C170.688 57.7169 170.598 57.6256 170.598 57.3516C170.509 57.169 170.509 56.895 170.509 56.7124V51.4156L171.852 51.2329V56.4384C171.852 56.5297 171.852 56.7124 171.852 56.8037C171.852 56.895 171.941 56.9863 171.941 57.0777C172.031 57.169 172.031 57.169 172.12 57.2603C172.21 57.2603 172.299 57.3516 172.478 57.3516L172.299 58.3562Z" fill="#065BAA"/>
<path d="M174.179 52.1461C174.179 52.4201 174.089 52.6027 173.91 52.6941C173.731 52.8767 173.552 52.8767 173.373 52.8767C173.194 52.8767 173.015 52.7854 172.836 52.6941C172.657 52.5114 172.568 52.3288 172.568 52.1461C172.568 51.8721 172.657 51.6895 172.836 51.5982C173.015 51.4155 173.194 51.4155 173.373 51.4155C173.552 51.4155 173.731 51.5069 173.91 51.5982C174.179 51.6895 174.179 51.8721 174.179 52.1461ZM174.089 58.2648H172.747V53.516H174.089V58.2648Z" fill="#065BAA"/>
<path d="M176.237 57.3516C176.506 57.3516 176.685 57.3516 176.774 57.2603C176.864 57.169 176.953 57.0777 176.953 56.9863C176.953 56.895 176.864 56.8037 176.774 56.7124C176.685 56.621 176.416 56.5297 176.148 56.4384C175.969 56.3471 175.79 56.2557 175.611 56.1644C175.432 56.0731 175.342 55.9818 175.163 55.8904C175.074 55.7991 174.984 55.6165 174.895 55.4338C174.805 55.2512 174.805 55.0685 174.805 54.8859C174.805 54.4292 174.984 54.064 175.253 53.79C175.521 53.516 176.058 53.4247 176.595 53.4247C176.864 53.4247 177.132 53.4247 177.401 53.516C177.669 53.6073 177.848 53.6073 178.027 53.6987L177.759 54.7945C177.58 54.7032 177.401 54.7032 177.222 54.6119C177.043 54.6119 176.864 54.5206 176.595 54.5206C176.148 54.5206 175.969 54.6119 175.969 54.8859C175.969 54.9772 175.969 54.9772 175.969 55.0685L176.058 55.1598C176.148 55.1598 176.148 55.2512 176.237 55.2512C176.327 55.3425 176.416 55.3425 176.595 55.4338C176.864 55.5251 177.132 55.6165 177.311 55.7991C177.49 55.8904 177.669 55.9818 177.759 56.1644C177.848 56.3471 177.938 56.4384 178.027 56.621C178.117 56.8037 178.117 56.9863 178.117 57.169C178.117 57.6256 177.938 57.9909 177.58 58.2649C177.222 58.5388 176.774 58.6302 176.148 58.6302C175.7 58.6302 175.432 58.6302 175.074 58.5388C174.805 58.4475 174.626 58.4475 174.537 58.3562L174.716 57.2603C174.984 57.3516 175.163 57.443 175.432 57.443C175.79 57.2603 175.969 57.3516 176.237 57.3516Z" fill="#065BAA"/>
<path d="M178.743 53.6987C179.012 53.6073 179.281 53.6073 179.639 53.516C179.997 53.4247 180.355 53.4247 180.802 53.4247C181.16 53.4247 181.518 53.516 181.787 53.6073C182.055 53.6987 182.234 53.8813 182.413 54.064C182.592 54.2466 182.682 54.5206 182.771 54.7945C182.861 55.0685 182.861 55.3425 182.861 55.7078V58.3562H181.518V55.7991C181.518 55.3425 181.429 55.0685 181.339 54.8859C181.25 54.7032 180.981 54.6119 180.713 54.6119C180.623 54.6119 180.534 54.6119 180.444 54.6119C180.355 54.6119 180.265 54.6119 180.176 54.6119V58.2649H178.833V53.6987H178.743Z" fill="#065BAA"/>
<path d="M187.605 53.516C187.336 54.4292 187.068 55.2512 186.799 56.0731C186.531 56.895 186.172 57.6256 185.814 58.4475C185.725 58.7215 185.546 58.9954 185.456 59.1781C185.367 59.3607 185.188 59.5434 185.009 59.6347C184.83 59.726 184.651 59.8174 184.472 59.9087C184.293 60 184.024 60 183.845 60C183.666 60 183.487 60 183.308 59.9087C183.129 59.9087 182.95 59.8174 182.861 59.8174L183.129 58.7215C183.308 58.8128 183.398 58.8128 183.487 58.8128C183.577 58.8128 183.666 58.8128 183.845 58.8128C184.114 58.8128 184.293 58.7215 184.382 58.6301C184.472 58.5388 184.651 58.3562 184.74 58.0822C184.472 57.4429 184.114 56.8037 183.845 56.0731C183.577 55.3425 183.219 54.5206 182.95 53.516H184.382C184.472 53.79 184.472 53.9726 184.561 54.2466C184.651 54.5206 184.74 54.7945 184.83 55.0685C184.919 55.3425 185.009 55.6164 185.098 55.8904C185.188 56.1644 185.277 56.4384 185.367 56.621C185.456 56.4384 185.546 56.1644 185.635 55.8904C185.725 55.6164 185.814 55.3425 185.904 55.0685C185.993 54.7945 186.083 54.5206 186.172 54.2466C186.262 53.9726 186.351 53.6986 186.351 53.516H187.605Z" fill="#065BAA"/>
<path d="M189.395 53.4247C189.753 53.4247 190.111 53.4247 190.379 53.516C190.648 53.6073 190.827 53.6987 191.006 53.8813C191.185 54.064 191.274 54.2466 191.364 54.5206C191.453 54.7945 191.453 55.0685 191.453 55.3425V58.1735C191.274 58.1735 191.006 58.2649 190.648 58.3562C190.29 58.4475 189.932 58.4475 189.395 58.4475C189.126 58.4475 188.858 58.4475 188.589 58.3562C188.321 58.2649 188.142 58.1735 187.963 58.0822C187.784 57.9909 187.605 57.8082 187.515 57.6256C187.426 57.4429 187.336 57.169 187.336 56.895C187.336 56.621 187.426 56.3471 187.515 56.1644C187.605 55.9818 187.784 55.7991 187.963 55.7078C188.142 55.6165 188.321 55.5251 188.589 55.4338C188.858 55.3425 189.037 55.3425 189.305 55.3425C189.484 55.3425 189.663 55.3425 189.753 55.3425C189.842 55.3425 190.021 55.3425 190.111 55.4338V55.3425C190.111 55.0685 190.021 54.8859 189.932 54.7945C189.842 54.7032 189.574 54.6119 189.216 54.6119C188.947 54.6119 188.768 54.6119 188.589 54.7032C188.41 54.7032 188.142 54.7945 188.052 54.8859L187.873 53.79C187.963 53.79 188.052 53.6987 188.142 53.6987C188.231 53.6987 188.41 53.6073 188.5 53.6073C188.679 53.6073 188.768 53.6073 188.947 53.516C189.126 53.4247 189.216 53.4247 189.395 53.4247ZM189.484 57.3516C189.574 57.3516 189.753 57.3516 189.842 57.3516C189.932 57.3516 190.021 57.3516 190.111 57.3516V56.3471C190.021 56.3471 190.021 56.3471 189.842 56.3471C189.753 56.3471 189.663 56.3471 189.574 56.3471C189.484 56.3471 189.305 56.3471 189.216 56.3471C189.126 56.3471 189.037 56.3471 188.947 56.4384C188.858 56.4384 188.768 56.5297 188.768 56.621C188.679 56.7124 188.679 56.8037 188.679 56.895C188.679 57.0776 188.768 57.2603 188.858 57.3516C189.126 57.2603 189.305 57.3516 189.484 57.3516Z" fill="#065BAA"/>
<path d="M198.077 58.2649C197.987 58.0822 197.898 57.8083 197.898 57.6256C197.808 57.3516 197.719 57.169 197.629 56.895H195.213C195.123 57.169 195.034 57.3516 194.944 57.6256C194.855 57.8996 194.765 58.0822 194.765 58.2649H193.333C193.601 57.6256 193.78 56.9863 193.959 56.3471C194.138 55.7078 194.407 55.2512 194.586 54.7032C194.765 54.1553 194.944 53.6987 195.213 53.2421C195.392 52.7854 195.571 52.3288 195.839 51.8722H197.182C197.361 52.3288 197.54 52.7854 197.808 53.2421C197.987 53.6987 198.166 54.1553 198.435 54.7032C198.614 55.2512 198.882 55.7078 199.061 56.3471C199.24 56.895 199.509 57.5343 199.688 58.2649H198.077ZM196.466 53.4247C196.466 53.516 196.376 53.6074 196.287 53.79C196.197 53.9727 196.197 54.1553 196.108 54.3379C196.018 54.5206 195.929 54.7946 195.839 54.9772C195.75 55.2512 195.66 55.5252 195.571 55.7991H197.361C197.271 55.5252 197.182 55.2512 197.092 54.9772C197.003 54.7032 196.913 54.5206 196.824 54.3379C196.734 54.1553 196.645 53.9727 196.645 53.79C196.555 53.6074 196.466 53.516 196.466 53.4247Z" fill="#065BAA"/>
<path d="M201.299 57.3516C201.567 57.3516 201.746 57.3516 201.836 57.2603C201.925 57.169 202.015 57.0777 202.015 56.9863C202.015 56.895 201.925 56.8037 201.836 56.7124C201.746 56.621 201.478 56.5297 201.209 56.4384C201.03 56.3471 200.851 56.2557 200.672 56.1644C200.493 56.0731 200.404 55.9818 200.225 55.8904C200.135 55.7991 200.046 55.6165 199.956 55.4338C199.867 55.2512 199.867 55.0685 199.867 54.8859C199.867 54.4292 200.046 54.064 200.314 53.79C200.583 53.516 201.12 53.4247 201.657 53.4247C201.925 53.4247 202.194 53.4247 202.463 53.516C202.731 53.6073 202.91 53.6073 203.089 53.6987L202.821 54.7945C202.642 54.7032 202.463 54.7032 202.284 54.6119C202.104 54.6119 201.925 54.5206 201.657 54.5206C201.209 54.5206 201.03 54.6119 201.03 54.8859C201.03 54.9772 201.03 54.9772 201.03 55.0685L201.12 55.1598C201.209 55.1598 201.209 55.2512 201.299 55.2512C201.388 55.3425 201.478 55.3425 201.657 55.4338C201.925 55.5251 202.194 55.6165 202.373 55.7991C202.552 55.8904 202.731 55.9818 202.821 56.1644C202.91 56.2557 203 56.4384 203.089 56.621C203.179 56.8037 203.179 56.9863 203.179 57.169C203.179 57.6256 203 57.9909 202.642 58.2649C202.283 58.5388 201.836 58.6302 201.209 58.6302C200.762 58.6302 200.493 58.6302 200.135 58.5388C199.867 58.4475 199.688 58.4475 199.598 58.3562L199.777 57.2603C200.046 57.3516 200.225 57.443 200.493 57.443C200.851 57.2603 201.03 57.3516 201.299 57.3516Z" fill="#065BAA"/>
<path d="M207.833 58.0822C207.564 58.1735 207.296 58.1735 206.938 58.2649C206.58 58.3562 206.222 58.3562 205.774 58.3562C205.416 58.3562 205.058 58.2649 204.79 58.1735C204.521 58.0822 204.342 57.8996 204.163 57.7169C203.984 57.5343 203.895 57.2603 203.805 56.9863C203.716 56.7124 203.716 56.4384 203.716 56.0731V53.4247H205.058V55.8904C205.058 56.3471 205.148 56.621 205.237 56.8037C205.327 56.9863 205.595 57.0776 205.864 57.0776C205.953 57.0776 206.043 57.0776 206.132 57.0776C206.222 57.0776 206.311 57.0776 206.401 57.0776V53.4247H207.743V58.0822H207.833Z" fill="#065BAA"/>
<path d="M211.413 54.7032C211.324 54.7032 211.145 54.6119 210.966 54.6119C210.787 54.6119 210.608 54.5206 210.429 54.5206C210.339 54.5206 210.25 54.5206 210.16 54.5206C210.071 54.5206 209.981 54.5206 209.892 54.6119V58.2649H208.549V53.79C208.817 53.6987 209.086 53.6073 209.354 53.516C209.713 53.4247 210.071 53.4247 210.429 53.4247C210.518 53.4247 210.608 53.4247 210.697 53.4247C210.787 53.4247 210.876 53.4247 210.966 53.4247C211.055 53.4247 211.145 53.4247 211.234 53.516C211.324 53.516 211.413 53.6073 211.503 53.6073L211.413 54.7032Z" fill="#065BAA"/>
<path d="M213.472 53.4247C213.83 53.4247 214.188 53.4247 214.456 53.516C214.725 53.6073 214.904 53.6987 215.083 53.8813C215.262 54.064 215.351 54.2466 215.441 54.5206C215.53 54.7945 215.53 55.0685 215.53 55.3425V58.1735C215.351 58.1735 215.083 58.2649 214.725 58.3562C214.367 58.4475 214.009 58.4475 213.472 58.4475C213.203 58.4475 212.935 58.4475 212.666 58.3562C212.398 58.2649 212.219 58.1735 212.04 58.0822C211.861 57.9909 211.682 57.8082 211.592 57.6256C211.503 57.4429 211.413 57.169 211.413 56.895C211.413 56.621 211.503 56.3471 211.592 56.1644C211.682 55.9818 211.861 55.7991 212.04 55.7078C212.219 55.6165 212.398 55.5251 212.666 55.4338C212.935 55.3425 213.114 55.3425 213.382 55.3425C213.561 55.3425 213.74 55.3425 213.83 55.3425C213.919 55.3425 214.098 55.3425 214.188 55.4338V55.3425C214.188 55.0685 214.098 54.8859 214.009 54.7945C213.919 54.7032 213.651 54.6119 213.293 54.6119C213.024 54.6119 212.845 54.6119 212.666 54.7032C212.487 54.7032 212.219 54.7945 212.129 54.8859L211.95 53.79C212.04 53.79 212.129 53.6987 212.219 53.6987C212.308 53.6987 212.487 53.6073 212.577 53.6073C212.756 53.6073 212.845 53.6073 213.024 53.516C213.203 53.4247 213.382 53.4247 213.472 53.4247ZM213.651 57.3516C213.74 57.3516 213.919 57.3516 214.009 57.3516C214.098 57.3516 214.188 57.3516 214.277 57.3516V56.3471C214.188 56.3471 214.188 56.3471 214.009 56.3471C213.919 56.3471 213.83 56.3471 213.74 56.3471C213.651 56.3471 213.472 56.3471 213.382 56.3471C213.293 56.3471 213.203 56.3471 213.114 56.4384C213.024 56.4384 212.935 56.5297 212.935 56.621C212.845 56.7124 212.845 56.8037 212.845 56.895C212.845 57.0776 212.935 57.2603 213.024 57.3516C213.203 57.2603 213.382 57.3516 213.651 57.3516Z" fill="#065BAA"/>
<path d="M216.336 53.6987C216.604 53.6073 216.873 53.6073 217.231 53.516C217.589 53.4247 217.947 53.4247 218.395 53.4247C218.753 53.4247 219.111 53.516 219.379 53.6073C219.648 53.6987 219.827 53.8813 220.006 54.064C220.185 54.2466 220.274 54.5206 220.364 54.7945C220.453 55.0685 220.453 55.3425 220.453 55.7078V58.3562H219.111V55.7991C219.111 55.3425 219.021 55.0685 218.932 54.8859C218.842 54.7032 218.574 54.6119 218.305 54.6119C218.216 54.6119 218.126 54.6119 218.037 54.6119C217.947 54.6119 217.858 54.6119 217.768 54.6119V58.2649H216.425V53.6987H216.336Z" fill="#065BAA"/>
<path d="M222.422 57.3516C222.691 57.3516 222.87 57.3516 222.959 57.2603C223.049 57.169 223.138 57.0777 223.138 56.9863C223.138 56.895 223.049 56.8037 222.959 56.7124C222.87 56.621 222.601 56.5297 222.333 56.4384C222.154 56.3471 221.975 56.2557 221.796 56.1644C221.617 56.0731 221.527 55.9818 221.348 55.8904C221.259 55.7991 221.169 55.6165 221.08 55.4338C220.99 55.2512 220.99 55.0685 220.99 54.8859C220.99 54.4292 221.169 54.064 221.438 53.79C221.706 53.516 222.243 53.4247 222.78 53.4247C223.049 53.4247 223.317 53.4247 223.586 53.516C223.854 53.6073 224.033 53.6073 224.212 53.6987L223.944 54.7945C223.765 54.7032 223.586 54.7032 223.407 54.6119C223.228 54.6119 223.049 54.5206 222.78 54.5206C222.333 54.5206 222.154 54.6119 222.154 54.8859C222.154 54.9772 222.154 54.9772 222.154 55.0685L222.243 55.1598C222.333 55.1598 222.333 55.2512 222.422 55.2512C222.512 55.3425 222.601 55.3425 222.78 55.4338C223.049 55.5251 223.317 55.6165 223.496 55.7991C223.675 55.8904 223.854 55.9818 223.944 56.1644C224.033 56.3471 224.123 56.4384 224.212 56.621C224.302 56.8037 224.302 56.9863 224.302 57.169C224.302 57.6256 224.123 57.9909 223.765 58.2649C223.407 58.5388 222.959 58.6302 222.333 58.6302C221.885 58.6302 221.617 58.6302 221.259 58.5388C220.99 58.4475 220.811 58.4475 220.722 58.3562L220.901 57.2603C221.169 57.3516 221.348 57.443 221.617 57.443C221.975 57.2603 222.154 57.3516 222.422 57.3516Z" fill="#065BAA"/>
<path d="M226.361 52.1461C226.361 52.4201 226.271 52.6027 226.092 52.6941C225.913 52.8767 225.734 52.8767 225.555 52.8767C225.376 52.8767 225.197 52.7854 225.018 52.6941C224.839 52.5114 224.75 52.3288 224.75 52.1461C224.75 51.8721 224.839 51.6895 225.018 51.5982C225.197 51.4155 225.376 51.4155 225.555 51.4155C225.734 51.4155 225.913 51.5069 226.092 51.5982C226.361 51.6895 226.361 51.8721 226.361 52.1461ZM226.271 58.2648H224.929V53.516H226.271V58.2648Z" fill="#065BAA"/>
<path d="M230.746 51.9635C231.641 51.9635 232.358 52.1461 232.895 52.4201C233.342 52.7854 233.611 53.3334 233.611 54.064C233.611 54.7946 233.342 55.3425 232.895 55.7078C232.358 56.0731 231.641 56.2557 230.746 56.2557H230.299V58.3562H228.956V52.0548C229.225 51.9635 229.583 51.9635 229.941 51.9635C230.12 51.9635 230.478 51.9635 230.746 51.9635ZM230.836 53.1507C230.746 53.1507 230.657 53.1507 230.567 53.1507C230.478 53.1507 230.388 53.1507 230.299 53.1507V54.9772H230.746C231.194 54.9772 231.552 54.8859 231.821 54.7946C232.089 54.7032 232.179 54.4293 232.179 54.064C232.179 53.8813 232.179 53.6987 232.089 53.6073C232 53.516 231.91 53.4247 231.821 53.3334C231.731 53.242 231.552 53.242 231.373 53.1507C231.194 53.0594 231.015 53.1507 230.836 53.1507Z" fill="#065BAA"/>
<path d="M233.7 55.9818C233.7 55.5251 233.79 55.1598 233.879 54.8859C233.969 54.6119 234.148 54.3379 234.416 54.064C234.685 53.79 234.864 53.6987 235.132 53.6073C235.401 53.516 235.669 53.4247 235.938 53.4247C236.564 53.4247 237.101 53.6073 237.549 54.064C237.907 54.5206 238.086 55.0685 238.086 55.8904C238.086 55.9818 238.086 56.0731 238.086 56.1644C238.086 56.2557 238.086 56.3471 238.086 56.4384H235.043C235.043 56.7124 235.222 56.895 235.401 57.0777C235.58 57.2603 235.938 57.3516 236.296 57.3516C236.564 57.3516 236.743 57.3516 237.012 57.2603C237.28 57.2603 237.459 57.169 237.549 57.0777L237.728 58.1735C237.638 58.1735 237.549 58.2649 237.459 58.2649C237.37 58.2649 237.191 58.3562 237.101 58.3562C236.922 58.3562 236.833 58.4475 236.654 58.4475C236.475 58.4475 236.296 58.4475 236.117 58.4475C235.669 58.4475 235.311 58.3562 235.043 58.2649C234.774 58.1735 234.506 57.9909 234.237 57.7169C234.058 57.5343 233.879 57.2603 233.79 56.895C233.7 56.621 233.7 56.2557 233.7 55.9818ZM236.833 55.4338C236.833 55.3425 236.833 55.2512 236.743 55.0685C236.743 54.9772 236.654 54.8859 236.564 54.7945C236.475 54.7032 236.385 54.6119 236.296 54.6119C236.206 54.5206 236.027 54.5206 235.938 54.5206C235.759 54.5206 235.669 54.5206 235.58 54.6119C235.49 54.7032 235.401 54.7032 235.311 54.7945C235.222 54.8859 235.222 54.9772 235.132 55.0685C235.132 55.1598 235.043 55.2512 235.043 55.4338H236.833Z" fill="#065BAA"/>
<path d="M241.487 54.7032C241.398 54.7032 241.219 54.6119 241.04 54.6119C240.861 54.6119 240.682 54.5206 240.503 54.5206C240.413 54.5206 240.324 54.5206 240.234 54.5206C240.145 54.5206 240.055 54.5206 239.966 54.6119V58.2649H238.623V53.79C238.892 53.6987 239.16 53.6073 239.429 53.516C239.787 53.4247 240.145 53.4247 240.503 53.4247C240.592 53.4247 240.682 53.4247 240.771 53.4247C240.861 53.4247 240.95 53.4247 241.04 53.4247C241.129 53.4247 241.219 53.4247 241.308 53.516C241.398 53.516 241.487 53.6073 241.577 53.6073L241.487 54.7032Z" fill="#065BAA"/>
<path d="M241.487 60C241.398 60 241.308 60 241.129 60C240.95 60 240.771 59.9087 240.682 59.9087L240.861 58.8128C240.95 58.8128 241.04 58.9041 241.129 58.9041C241.219 58.9041 241.308 58.9041 241.398 58.9041C241.577 58.9041 241.756 58.8128 241.845 58.7215C241.935 58.6301 241.935 58.4475 241.935 58.1735V53.6073H243.277V58.1735C243.277 58.8128 243.098 59.2694 242.83 59.5434C242.561 59.8173 242.114 60 241.487 60ZM243.456 52.1461C243.456 52.4201 243.367 52.6027 243.188 52.6941C243.009 52.8767 242.83 52.8767 242.651 52.8767C242.472 52.8767 242.293 52.7854 242.114 52.6941C241.935 52.5114 241.845 52.3288 241.845 52.1461C241.845 51.8721 241.935 51.6895 242.114 51.5982C242.293 51.4155 242.472 51.4155 242.651 51.4155C242.83 51.4155 243.009 51.5069 243.188 51.5982C243.367 51.6895 243.456 51.8721 243.456 52.1461Z" fill="#065BAA"/>
<path d="M245.783 53.4247C246.141 53.4247 246.5 53.4247 246.768 53.516C247.037 53.6073 247.216 53.6987 247.395 53.8813C247.574 54.064 247.663 54.2466 247.753 54.5206C247.842 54.7945 247.842 55.0685 247.842 55.3425V58.1735C247.663 58.1735 247.395 58.2649 247.037 58.3562C246.679 58.4475 246.321 58.4475 245.783 58.4475C245.515 58.4475 245.246 58.4475 244.978 58.3562C244.709 58.2649 244.53 58.1735 244.351 58.0822C244.172 57.9909 243.993 57.8082 243.904 57.6256C243.814 57.4429 243.725 57.169 243.725 56.895C243.725 56.621 243.814 56.3471 243.904 56.1644C243.993 55.9818 244.172 55.7991 244.351 55.7078C244.53 55.6165 244.709 55.5251 244.978 55.4338C245.246 55.3425 245.425 55.3425 245.694 55.3425C245.873 55.3425 246.052 55.3425 246.141 55.3425C246.231 55.3425 246.41 55.3425 246.5 55.4338V55.3425C246.5 55.0685 246.41 54.8859 246.321 54.7945C246.141 54.6119 245.962 54.6119 245.604 54.6119C245.336 54.6119 245.157 54.6119 244.978 54.7032C244.799 54.7032 244.53 54.7945 244.441 54.8859L244.262 53.79C244.351 53.79 244.441 53.6987 244.53 53.6987C244.62 53.6987 244.799 53.6073 244.888 53.6073C245.067 53.6073 245.157 53.6073 245.336 53.516C245.425 53.4247 245.604 53.4247 245.783 53.4247ZM245.873 57.3516C245.962 57.3516 246.141 57.3516 246.231 57.3516C246.321 57.3516 246.41 57.3516 246.5 57.3516V56.3471C246.41 56.3471 246.41 56.3471 246.231 56.3471C246.141 56.3471 246.052 56.3471 245.962 56.3471C245.873 56.3471 245.694 56.3471 245.604 56.3471C245.515 56.3471 245.425 56.3471 245.336 56.4384C245.246 56.4384 245.157 56.5297 245.157 56.621C245.067 56.7124 245.067 56.8037 245.067 56.895C245.067 57.0776 245.157 57.2603 245.246 57.3516C245.425 57.2603 245.604 57.3516 245.873 57.3516Z" fill="#065BAA"/>
<path d="M250.438 58.3562C250.08 58.3562 249.722 58.2649 249.543 58.2649C249.274 58.1736 249.095 58.0822 249.006 57.8996C248.827 57.7169 248.737 57.6256 248.737 57.3516C248.737 57.0777 248.648 56.895 248.648 56.7124V51.4156L249.99 51.2329V56.4384C249.99 56.5297 249.99 56.7124 249.99 56.8037C249.99 56.895 250.08 56.9863 250.08 57.0777C250.169 57.169 250.169 57.169 250.259 57.2603C250.348 57.2603 250.438 57.3516 250.617 57.3516L250.438 58.3562Z" fill="#065BAA"/>
<path d="M252.765 53.4247C253.123 53.4247 253.481 53.4247 253.749 53.516C254.018 53.6073 254.197 53.6987 254.376 53.8813C254.555 54.064 254.645 54.2466 254.734 54.5206C254.824 54.7945 254.824 55.0685 254.824 55.3425V58.1735C254.645 58.1735 254.376 58.2649 254.018 58.3562C253.66 58.4475 253.302 58.4475 252.765 58.4475C252.496 58.4475 252.228 58.4475 251.959 58.3562C251.691 58.2649 251.512 58.1735 251.333 58.0822C251.154 57.9909 250.975 57.8082 250.885 57.6256C250.796 57.4429 250.706 57.169 250.706 56.895C250.706 56.621 250.796 56.3471 250.885 56.1644C250.975 55.9818 251.154 55.7991 251.333 55.7078C251.512 55.6165 251.691 55.5251 251.959 55.4338C252.228 55.3425 252.407 55.3425 252.675 55.3425C252.854 55.3425 253.033 55.3425 253.123 55.3425C253.212 55.3425 253.391 55.3425 253.481 55.4338V55.3425C253.481 55.0685 253.391 54.8859 253.302 54.7945C253.123 54.6119 252.944 54.6119 252.586 54.6119C252.317 54.6119 252.138 54.6119 251.959 54.7032C251.78 54.7032 251.512 54.7945 251.422 54.8859L251.243 53.79C251.333 53.79 251.422 53.6987 251.512 53.6987C251.601 53.6987 251.78 53.6073 251.87 53.6073C252.049 53.6073 252.138 53.6073 252.317 53.516C252.407 53.4247 252.586 53.4247 252.765 53.4247ZM252.854 57.3516C252.944 57.3516 253.123 57.3516 253.212 57.3516C253.302 57.3516 253.391 57.3516 253.481 57.3516V56.3471C253.391 56.3471 253.391 56.3471 253.212 56.3471C253.123 56.3471 253.033 56.3471 252.944 56.3471C252.854 56.3471 252.675 56.3471 252.586 56.3471C252.496 56.3471 252.407 56.3471 252.317 56.4384C252.228 56.4384 252.138 56.5297 252.138 56.621C252.049 56.7124 252.049 56.8037 252.049 56.895C252.049 57.0776 252.138 57.2603 252.228 57.3516C252.407 57.2603 252.586 57.3516 252.854 57.3516Z" fill="#065BAA"/>
<path d="M255.54 53.6987C255.808 53.6073 256.077 53.6073 256.435 53.516C256.793 53.4247 257.151 53.4247 257.598 53.4247C257.956 53.4247 258.314 53.516 258.583 53.6073C258.851 53.6987 259.03 53.8813 259.209 54.064C259.388 54.2466 259.478 54.5206 259.567 54.7945C259.657 55.0685 259.657 55.3425 259.657 55.7078V58.3562H258.314V55.7991C258.314 55.3425 258.225 55.0685 258.135 54.8859C258.046 54.7032 257.777 54.6119 257.509 54.6119C257.419 54.6119 257.33 54.6119 257.24 54.6119C257.151 54.6119 257.061 54.6119 256.972 54.6119V58.2649H255.629V53.6987H255.54Z" fill="#065BAA"/>
<path d="M261.984 53.4247C262.342 53.4247 262.7 53.4247 262.969 53.516C263.237 53.6073 263.416 53.6987 263.595 53.8813C263.774 54.064 263.864 54.2466 263.953 54.5206C264.043 54.7945 264.043 55.0685 264.043 55.3425V58.1735C263.864 58.1735 263.595 58.2649 263.237 58.3562C262.879 58.4475 262.521 58.4475 261.984 58.4475C261.716 58.4475 261.447 58.4475 261.178 58.3562C260.91 58.2649 260.731 58.1735 260.552 58.0822C260.373 57.9909 260.194 57.8082 260.104 57.6256C260.015 57.4429 259.925 57.169 259.925 56.895C259.925 56.621 260.015 56.3471 260.104 56.1644C260.194 55.9818 260.373 55.7991 260.552 55.7078C260.731 55.6165 260.91 55.5251 261.178 55.4338C261.447 55.3425 261.626 55.3425 261.895 55.3425C262.074 55.3425 262.253 55.3425 262.342 55.3425C262.432 55.3425 262.611 55.3425 262.7 55.4338V55.3425C262.7 55.0685 262.611 54.8859 262.521 54.7945C262.342 54.6119 262.163 54.6119 261.805 54.6119C261.537 54.6119 261.357 54.6119 261.178 54.7032C260.999 54.7032 260.731 54.7945 260.641 54.8859L260.462 53.79C260.552 53.79 260.641 53.6987 260.731 53.6987C260.82 53.6987 260.999 53.6073 261.089 53.6073C261.268 53.6073 261.358 53.6073 261.537 53.516C261.716 53.4247 261.805 53.4247 261.984 53.4247ZM262.074 57.3516C262.163 57.3516 262.342 57.3516 262.432 57.3516C262.521 57.3516 262.611 57.3516 262.7 57.3516V56.3471C262.611 56.3471 262.611 56.3471 262.432 56.3471C262.342 56.3471 262.253 56.3471 262.163 56.3471C262.074 56.3471 261.895 56.3471 261.805 56.3471C261.716 56.3471 261.626 56.3471 261.537 56.4384C261.447 56.4384 261.358 56.5297 261.358 56.621C261.268 56.7124 261.268 56.8037 261.268 56.895C261.268 57.0776 261.358 57.2603 261.447 57.3516C261.716 57.2603 261.895 57.3516 262.074 57.3516Z" fill="#065BAA"/>
<path d="M264.759 53.6987C265.027 53.6073 265.296 53.6073 265.654 53.516C266.012 53.4247 266.37 53.4247 266.817 53.4247C267.175 53.4247 267.533 53.516 267.802 53.6073C268.07 53.6987 268.249 53.8813 268.428 54.064C268.607 54.2466 268.697 54.5206 268.786 54.7945C268.876 55.0685 268.876 55.3425 268.876 55.7078V58.3562H267.533V55.7991C267.533 55.3425 267.444 55.0685 267.354 54.8859C267.265 54.7032 266.996 54.6119 266.728 54.6119C266.638 54.6119 266.549 54.6119 266.459 54.6119C266.37 54.6119 266.28 54.6119 266.191 54.6119V58.2649H264.848V53.6987H264.759Z" fill="#065BAA"/>
<path d="M122.623 13.242L123.429 14.7032C123.518 14.8858 123.966 15.0685 124.324 15.0685H133.364C133.722 15.0685 134.08 14.8858 134.259 14.7032L135.244 13.242C135.244 5.93607 137.839 0 140.972 0C130.858 0 122.623 5.93607 122.623 13.242Z" fill="#50B848"/>
<path d="M141.419 0C141.24 0 141.061 0 140.972 0C144.194 0 146.7 5.93607 146.7 13.242L147.506 14.7032C147.595 14.8858 148.043 15.0685 148.401 15.0685H157.441C157.799 15.0685 158.247 14.8858 158.336 14.7032L159.321 13.242C159.231 6.0274 151.355 0.182648 141.419 0Z" fill="#50B848"/>
<path d="M140.972 0C140.793 0 140.614 0 140.524 0C127.098 0.0913242 115.463 5.47945 109.913 13.242L110.719 14.7032C110.808 14.8858 111.256 15.0685 111.614 15.0685H120.833C121.191 15.0685 121.639 14.8858 121.728 14.7032L122.713 13.242C122.623 5.93607 130.858 0 140.972 0C137.75 0 135.244 5.93607 135.244 13.242L135.96 14.7032C136.049 14.8858 136.407 15.0685 136.765 15.0685H145C145.358 15.0685 145.716 14.8858 145.805 14.7032L146.7 13.242C146.7 5.93607 144.105 0 140.972 0Z" fill="#065BAA"/>
<path d="M141.419 0C151.355 0.182648 159.231 6.0274 159.231 13.242L160.037 14.7032C160.126 14.8858 160.574 15.0685 160.932 15.0685H170.151C170.509 15.0685 170.956 14.8858 171.046 14.7032L172.031 13.242C166.481 5.47945 154.845 0.0913242 141.419 0Z" fill="#065BAA"/>
</g>
<defs>
<clipPath id="clip0">
<rect width="268.966" height="60" fill="white"/>
</clipPath>
</defs>
</svg>
