<svg width="16" height="15" viewBox="0 0 16 15" fill="none" xmlns="http://www.w3.org/2000/svg">
<path fill-rule="evenodd" clip-rule="evenodd" d="M8 0C3.8525 0 0.5 3.3525 0.5 7.5C0.5 11.6475 3.8525 15 8 15C12.1475 15 15.5 11.6475 15.5 7.5C15.5 3.3525 12.1475 0 8 0ZM8 13.5C4.6925 13.5 2 10.8075 2 7.5C2 4.1925 4.6925 1.5 8 1.5C11.3075 1.5 14 4.1925 14 7.5C14 10.8075 11.3075 13.5 8 13.5ZM8 6.4425L10.6925 3.75L11.75 4.8075L9.0575 7.5L11.75 10.1925L10.6925 11.25L8 8.5575L5.3075 11.25L4.25 10.1925L6.9425 7.5L4.25 4.8075L5.3075 3.75L8 6.4425Z" fill="#231F20"/>
</svg>
